<svg xmlns="http://www.w3.org/2000/svg" viewBox="0 0 48 48" xmlns:xlink="http://www.w3.org/1999/xlink" xml:space="preserve" width="100%" height="100%"><path xmlns="http://www.w3.org/2000/svg" d="M24 38c1.892 0 3.62-.206 5.196-.562l-3.514-3.514c-.546.042-1.1.076-1.682.076-10.702 0-14.848-7.692-15.852-10a17.2 17.2 0 0 1 3.016-4.594L8.368 16.61c-3.076 3.334-4.242 6.692-4.264 6.758a2 2 0 0 0 0 1.266C4.146 24.766 8.734 38 24 38m0-28c-3.674 0-6.692.792-9.208 1.962L7.414 4.586 4.586 7.414l36 36 2.828-2.828-6.638-6.638c5.228-3.902 7.094-9.23 7.122-9.314a2 2 0 0 0 0-1.266C43.854 23.234 39.266 10 24 10m9.944 21.116-4.56-4.56c.38-.78.616-1.638.616-2.556 0-3.282-2.718-6-6-6-.918 0-1.776.236-2.554.618l-3.616-3.616A18.6 18.6 0 0 1 24 14c10.702 0 14.848 7.692 15.852 10-.604 1.384-2.332 4.684-5.908 7.116"></path></svg>