<svg xmlns="http://www.w3.org/2000/svg" viewBox="0 0 48 48" xmlns:xlink="http://www.w3.org/1999/xlink" xml:space="preserve" width="100%" height="100%"><path xmlns="http://www.w3.org/2000/svg" d="M40.6 26.86a2 2 0 0 0-2.5 1.3A14.28 14.28 0 0 1 24.36 38 14.2 14.2 0 0 1 10 24a14.2 14.2 0 0 1 14.36-14 14.52 14.52 0 0 1 9.3 3.34l-4.34-.72a2 2 0 0 0-2.3 1.66 2 2 0 0 0 1.66 2.3l8.48 1.4h.34a2 2 0 0 0 .68-.12.6.6 0 0 0 .2-.12 1.6 1.6 0 0 0 .4-.22l.18-.22c0-.1.18-.18.26-.3s0-.2.1-.28a3 3 0 0 0 .14-.36l1.5-8a2.036 2.036 0 0 0-4-.76l-.54 2.9A18.4 18.4 0 0 0 24.36 6 18.2 18.2 0 0 0 6 24a18.2 18.2 0 0 0 18.36 18A18.24 18.24 0 0 0 42 29.36a2 2 0 0 0-1.4-2.5"></path></svg>