<svg xmlns="http://www.w3.org/2000/svg" viewBox="0 0 48 48" xmlns:xlink="http://www.w3.org/1999/xlink" xml:space="preserve" width="100%" height="100%"><path xmlns="http://www.w3.org/2000/svg" fill="none" stroke="#000" stroke-linecap="round" stroke-linejoin="round" stroke-width="3" d="M24.59 18.03a6 6 0 1 0 5.38 5.38 6.01 6.01 0 0 0-5.38-5.38M39.037 24a14 14 0 0 1-.144 1.95l4.239 3.323a1.01 1.01 0 0 1 .23 1.29l-4.01 6.937a1.01 1.01 0 0 1-1.232.43l-4.21-1.695a1.51 1.51 0 0 0-1.422.164 15.4 15.4 0 0 1-2.02 1.176 1.5 1.5 0 0 0-.826 1.138l-.631 4.49a1.04 1.04 0 0 1-1.001.86h-8.02a1.04 1.04 0 0 1-1.002-.832l-.63-4.483a1.5 1.5 0 0 0-.844-1.146 14.5 14.5 0 0 1-2.012-1.178 1.5 1.5 0 0 0-1.416-.16l-4.209 1.693a1.01 1.01 0 0 1-1.231-.429l-4.01-6.937a1.01 1.01 0 0 1 .23-1.29l3.582-2.812a1.5 1.5 0 0 0 .562-1.32c-.033-.39-.054-.78-.054-1.172s.02-.775.054-1.158a1.5 1.5 0 0 0-.569-1.306l-3.58-2.813a1.01 1.01 0 0 1-.222-1.282l4.01-6.938a1.01 1.01 0 0 1 1.231-.43l4.21 1.695a1.51 1.51 0 0 0 1.422-.164 15.4 15.4 0 0 1 2.02-1.176 1.5 1.5 0 0 0 .826-1.138l.631-4.49a1.04 1.04 0 0 1 1.001-.86h8.02a1.04 1.04 0 0 1 1.002.832l.63 4.483a1.5 1.5 0 0 0 .844 1.146 14.5 14.5 0 0 1 2.011 1.178 1.5 1.5 0 0 0 1.417.16l4.208-1.693a1.01 1.01 0 0 1 1.232.429l4.01 6.937a1.01 1.01 0 0 1-.23 1.29l-3.582 2.812a1.5 1.5 0 0 0-.567 1.32c.03.388.052.778.052 1.169"></path></svg>